<svg aria-hidden="true" style="position: absolute; width: 0; height: 0; overflow: hidden;" version="1.1" xmlns="http://www.w3.org/2000/svg" xmlns:xlink="http://www.w3.org/1999/xlink">
<defs>
<symbol id="icon-phone-3" viewBox="0 0 32 32">
<path d="M28.865 21.822l-4.525-0.517c-1.087-0.125-2.155 0.249-2.921 1.015l-3.278 3.278c-5.041-2.565-9.174-6.68-11.739-11.739l3.296-3.296c0.766-0.766 1.14-1.835 1.015-2.921l-0.517-4.489c-0.214-1.799-1.728-3.153-3.545-3.153h-3.082c-2.013 0-3.687 1.675-3.563 3.687 0.944 15.213 13.111 27.362 28.306 28.306 2.013 0.125 3.687-1.55 3.687-3.563v-3.082c0.018-1.799-1.336-3.313-3.135-3.527z"></path>
</symbol>
<symbol id="icon-email" viewBox="0 0 43 32">
<path d="M37.333 0h-32c-2.2 0-3.98 1.8-3.98 4l-0.020 24c0 2.2 1.8 4 4 4h32c2.2 0 4-1.8 4-4v-24c0-2.2-1.8-4-4-4zM36.533 8.5l-14.14 8.84c-0.64 0.4-1.48 0.4-2.12 0l-14.14-8.84c-0.5-0.32-0.8-0.86-0.8-1.44 0-1.34 1.46-2.14 2.6-1.44l13.4 8.38 13.4-8.38c1.14-0.7 2.6 0.1 2.6 1.44 0 0.58-0.3 1.12-0.8 1.44z"></path>
</symbol>
<symbol id="icon-hexagon" viewBox="0 0 24 24">
<path d="M20 16c-0.001 0.121-0.025 0.246-0.070 0.362-0.080 0.206-0.225 0.384-0.426 0.5l-6.999 3.999c-0.112 0.064-0.232 0.105-0.355 0.124-0.218 0.034-0.445-0.003-0.654-0.124l-6.991-3.995c-0.111-0.065-0.207-0.148-0.285-0.245-0.139-0.171-0.22-0.385-0.22-0.621v-7.993c0.001-0.128 0.025-0.253 0.070-0.369 0.080-0.206 0.225-0.384 0.426-0.5l6.999-3.999c0.112-0.064 0.232-0.105 0.355-0.124 0.218-0.034 0.445 0.003 0.654 0.124l6.991 3.995c0.111 0.065 0.207 0.148 0.285 0.245 0.139 0.171 0.22 0.385 0.22 0.621zM22 16v-8c-0.001-0.71-0.248-1.363-0.664-1.878-0.23-0.286-0.512-0.528-0.831-0.715l-7.009-4.005c-0.61-0.352-1.3-0.465-1.954-0.364-0.363 0.057-0.715 0.179-1.037 0.363l-7.001 4.001c-0.618 0.357-1.060 0.897-1.299 1.514-0.133 0.342-0.202 0.707-0.205 1.077v8.007c0.001 0.71 0.248 1.363 0.664 1.878 0.23 0.286 0.512 0.528 0.831 0.715l7.009 4.005c0.61 0.352 1.3 0.465 1.954 0.364 0.363-0.057 0.715-0.179 1.037-0.363l7.001-4.001c0.618-0.357 1.060-0.897 1.299-1.514 0.133-0.342 0.202-0.707 0.205-1.084z"></path>
</symbol>
<symbol id="icon-octagon" viewBox="0 0 24 24">
<path d="M7.86 1c-0.256 0-0.512 0.098-0.707 0.293l-5.86 5.86c-0.181 0.181-0.293 0.431-0.293 0.707v8.28c0 0.256 0.098 0.512 0.293 0.707l5.86 5.86c0.181 0.181 0.431 0.293 0.707 0.293h8.28c0.256 0 0.512-0.098 0.707-0.293l5.86-5.86c0.181-0.181 0.293-0.431 0.293-0.707v-8.28c0-0.256-0.098-0.512-0.293-0.707l-5.86-5.86c-0.181-0.181-0.431-0.293-0.707-0.293zM8.274 3h7.452l5.274 5.274v7.452l-5.274 5.274h-7.452l-5.274-5.274v-7.452z"></path>
</symbol>
<symbol id="icon-github" viewBox="0 0 16 16">
<path d="M8 0c4.42 0 8 3.58 8 8a8.013 8.013 0 0 1-5.45 7.59c-.4.08-.55-.17-.55-.38 0-.27.01-1.13.01-2.2 0-.75-.25-1.23-.54-1.48 1.78-.2 3.65-.88 3.65-3.95 0-.88-.31-1.59-.82-2.15.08-.2.36-1.02-.08-2.12 0 0-.67-.22-2.2.82-.64-.18-1.32-.27-2-.27-.68 0-1.36.09-2 .27-1.53-1.03-2.2-.82-2.2-.82-.44 1.1-.16 1.92-.08 2.12-.51.56-.82 1.28-.82 2.15 0 3.06 1.86 3.75 3.64 3.95-.23.2-.44.55-.51 1.07-.46.21-1.61.55-2.33-.66-.15-.24-.6-.83-1.23-.82-.67.01-.27.38.01.53.34.19.73.9.82 1.13.16.45.68 1.31 2.69.94 0 .67.01 1.3.01 1.49 0 .21-.15.45-.55.38A7.995 7.995 0 0 1 0 8c0-4.42 3.58-8 8-8Z"></path>
</symbol>
<symbol id="icon-linkedin" viewBox="0 0 20 20">
<path d="M5 3c0 1.062-0.71 1.976-2.001 1.976-1.215 0-1.999-0.862-1.999-1.924 0-1.090 0.76-2.052 2-2.052s1.976 0.91 2 2zM1 19v-13h4v13h-4z"></path>
<path d="M7 10.444c0-1.545-0.051-2.836-0.102-3.951h3.594l0.178 1.723h0.076c0.506-0.811 1.746-2 3.822-2 2.532 0 4.432 1.695 4.432 5.342v7.442h-4v-6.861c0-1.594-0.607-2.81-2-2.81-1.062 0-1.594 0.86-1.873 1.569-0.102 0.254-0.127 0.608-0.127 0.963v7.139h-4v-8.556z"></path>
</symbol>
<symbol id="icon-djinni" viewBox="0 0 32 32">
<path d="M0 16v16h32v-32h-32v16zM19.47 7.609c0.228 0.114 0.512 0.441 0.654 0.74 0.228 0.469 0.228 0.583 0.057 1.095-0.228 0.654-0.953 1.223-1.55 1.223-0.569 0-1.308-0.569-1.536-1.166-0.185-0.484-0.171-0.583 0.1-1.152 0.171-0.341 0.441-0.697 0.626-0.782 0.455-0.213 1.195-0.199 1.65 0.043zM15.047 14.535l0.028 5.66h-1.195c-1.152 0-1.195-0.014-1.28-0.356l-0.085-0.356-0.597 0.384c-0.512 0.341-0.74 0.398-1.621 0.398-0.91 0-1.095-0.043-1.65-0.427-1.735-1.237-2.076-4.75-0.64-6.642 0.953-1.252 2.574-1.678 3.712-0.981l0.512 0.327v-1.28c0-1.052 0.043-1.337 0.284-1.636 0.356-0.441 1.408-0.811 2.204-0.754 0.284 0.014 0.284 0.128 0.327 5.66zM20.039 13.895c0 1.010-0.057 3.072-0.1 4.594-0.1 2.674-0.114 2.802-0.484 3.442-0.555 0.924-1.266 1.252-2.759 1.252-0.64 0-1.195-0.043-1.237-0.085-0.043-0.057 0.171-0.284 0.484-0.512 0.356-0.256 0.697-0.683 0.882-1.081 0.299-0.626 0.313-0.91 0.356-5.049l0.057-4.366h2.816l-0.014 1.806zM24.021 17.124c0.555 0.299 0.868 0.825 0.868 1.522 0 0.796-0.711 1.55-1.479 1.55-1.38 0-2.219-1.308-1.564-2.404 0.469-0.796 1.38-1.067 2.176-0.668z"></path>
<path d="M10.396 14.592c-0.555 0.711-0.555 2.389 0.014 3.115 0.356 0.455 1.124 0.484 1.536 0.071 0.242-0.242 0.284-0.469 0.284-1.778 0-1.664-0.071-1.778-1.052-1.778-0.356 0-0.569 0.1-0.782 0.37z"></path>
</symbol>
</defs>
</svg>
