<svg aria-hidden="true" style="position: absolute; width: 0; height: 0; overflow: hidden;" version="1.1" xmlns="http://www.w3.org/2000/svg" xmlns:xlink="http://www.w3.org/1999/xlink">
<defs>
<symbol id="icon-phone-3" viewBox="0 0 32 32">
<path d="M28.865 21.822l-4.525-0.517c-1.087-0.125-2.155 0.249-2.921 1.015l-3.278 3.278c-5.041-2.565-9.174-6.68-11.739-11.739l3.296-3.296c0.766-0.766 1.14-1.835 1.015-2.921l-0.517-4.489c-0.214-1.799-1.728-3.153-3.545-3.153h-3.082c-2.013 0-3.687 1.675-3.563 3.687 0.944 15.213 13.111 27.362 28.306 28.306 2.013 0.125 3.687-1.55 3.687-3.563v-3.082c0.018-1.799-1.336-3.313-3.135-3.527z"></path>
</symbol>
<symbol id="icon-email" viewBox="0 0 43 32">
<path d="M37.333 0h-32c-2.2 0-3.98 1.8-3.98 4l-0.020 24c0 2.2 1.8 4 4 4h32c2.2 0 4-1.8 4-4v-24c0-2.2-1.8-4-4-4zM36.533 8.5l-14.14 8.84c-0.64 0.4-1.48 0.4-2.12 0l-14.14-8.84c-0.5-0.32-0.8-0.86-0.8-1.44 0-1.34 1.46-2.14 2.6-1.44l13.4 8.38 13.4-8.38c1.14-0.7 2.6 0.1 2.6 1.44 0 0.58-0.3 1.12-0.8 1.44z"></path>
</symbol>
<symbol id="icon-hexagon" viewBox="0 0 24 24">
<path d="M20 16c-0.001 0.121-0.025 0.246-0.070 0.362-0.080 0.206-0.225 0.384-0.426 0.5l-6.999 3.999c-0.112 0.064-0.232 0.105-0.355 0.124-0.218 0.034-0.445-0.003-0.654-0.124l-6.991-3.995c-0.111-0.065-0.207-0.148-0.285-0.245-0.139-0.171-0.22-0.385-0.22-0.621v-7.993c0.001-0.128 0.025-0.253 0.070-0.369 0.080-0.206 0.225-0.384 0.426-0.5l6.999-3.999c0.112-0.064 0.232-0.105 0.355-0.124 0.218-0.034 0.445 0.003 0.654 0.124l6.991 3.995c0.111 0.065 0.207 0.148 0.285 0.245 0.139 0.171 0.22 0.385 0.22 0.621zM22 16v-8c-0.001-0.71-0.248-1.363-0.664-1.878-0.23-0.286-0.512-0.528-0.831-0.715l-7.009-4.005c-0.61-0.352-1.3-0.465-1.954-0.364-0.363 0.057-0.715 0.179-1.037 0.363l-7.001 4.001c-0.618 0.357-1.060 0.897-1.299 1.514-0.133 0.342-0.202 0.707-0.205 1.077v8.007c0.001 0.71 0.248 1.363 0.664 1.878 0.23 0.286 0.512 0.528 0.831 0.715l7.009 4.005c0.61 0.352 1.3 0.465 1.954 0.364 0.363-0.057 0.715-0.179 1.037-0.363l7.001-4.001c0.618-0.357 1.060-0.897 1.299-1.514 0.133-0.342 0.202-0.707 0.205-1.084z"></path>
</symbol>
<symbol id="icon-octagon" viewBox="0 0 24 24">
<path d="M7.86 1c-0.256 0-0.512 0.098-0.707 0.293l-5.86 5.86c-0.181 0.181-0.293 0.431-0.293 0.707v8.28c0 0.256 0.098 0.512 0.293 0.707l5.86 5.86c0.181 0.181 0.431 0.293 0.707 0.293h8.28c0.256 0 0.512-0.098 0.707-0.293l5.86-5.86c0.181-0.181 0.293-0.431 0.293-0.707v-8.28c0-0.256-0.098-0.512-0.293-0.707l-5.86-5.86c-0.181-0.181-0.431-0.293-0.707-0.293zM8.274 3h7.452l5.274 5.274v7.452l-5.274 5.274h-7.452l-5.274-5.274v-7.452z"></path>
</symbol>
<symbol id="icon-github" viewBox="0 0 16 16">
<path d="M8 0c4.42 0 8 3.58 8 8a8.013 8.013 0 0 1-5.45 7.59c-.4.08-.55-.17-.55-.38 0-.27.01-1.13.01-2.2 0-.75-.25-1.23-.54-1.48 1.78-.2 3.65-.88 3.65-3.95 0-.88-.31-1.59-.82-2.15.08-.2.36-1.02-.08-2.12 0 0-.67-.22-2.2.82-.64-.18-1.32-.27-2-.27-.68 0-1.36.09-2 .27-1.53-1.03-2.2-.82-2.2-.82-.44 1.1-.16 1.92-.08 2.12-.51.56-.82 1.28-.82 2.15 0 3.06 1.86 3.75 3.64 3.95-.23.2-.44.55-.51 1.07-.46.21-1.61.55-2.33-.66-.15-.24-.6-.83-1.23-.82-.67.01-.27.38.01.53.34.19.73.9.82 1.13.16.45.68 1.31 2.69.94 0 .67.01 1.3.01 1.49 0 .21-.15.45-.55.38A7.995 7.995 0 0 1 0 8c0-4.42 3.58-8 8-8Z"></path>
</symbol>
<symbol id="icon-linkedin" viewBox="0 0 20 20">
<path d="M5 3c0 1.062-0.71 1.976-2.001 1.976-1.215 0-1.999-0.862-1.999-1.924 0-1.090 0.76-2.052 2-2.052s1.976 0.91 2 2zM1 19v-13h4v13h-4z"></path>
<path d="M7 10.444c0-1.545-0.051-2.836-0.102-3.951h3.594l0.178 1.723h0.076c0.506-0.811 1.746-2 3.822-2 2.532 0 4.432 1.695 4.432 5.342v7.442h-4v-6.861c0-1.594-0.607-2.81-2-2.81-1.062 0-1.594 0.86-1.873 1.569-0.102 0.254-0.127 0.608-0.127 0.963v7.139h-4v-8.556z"></path>
</symbol>
<symbol id="icon-djinni" viewBox="0 0 32 32">
<path d="M0 16v16h32v-32h-32v16zM22.424 2.030c0.382 0.191 0.86 0.74 1.099 1.242 0.382 0.788 0.382 0.979 0.096 1.839-0.382 1.098-1.6 2.054-2.603 2.054-0.955 0-2.197-0.955-2.579-1.958-0.31-0.812-0.287-0.979 0.167-1.934 0.287-0.573 0.74-1.17 1.051-1.313 0.764-0.358 2.006-0.334 2.77 0.072zM14.925 13.612v9.433l-1.934 0.072c-1.91 0.072-1.958 0.048-2.101-0.549l-0.143-0.597-1.003 0.645c-0.86 0.573-1.242 0.669-2.722 0.669-1.528 0-1.839-0.072-2.77-0.716-2.913-2.078-3.487-7.976-1.075-11.152 1.6-2.078 4.346-2.818 6.233-1.648l0.86 0.549v-2.149c0-1.767 0.072-2.245 0.478-2.746 0.597-0.74 2.364-1.361 3.701-1.266 0.478 0.024 0.478 0.191 0.478 9.457zM23.284 16.645c-0.072 3.916-0.215 7.427-0.287 7.833-0.072 0.382-0.382 1.17-0.693 1.719-0.812 1.409-2.102 1.982-4.537 1.982-1.075 0-1.982-0.072-2.078-0.143-0.072-0.096 0.191-0.382 0.621-0.669 1.027-0.693 1.743-1.839 2.054-3.272 0.143-0.693 0.263-4.012 0.263-7.857v-6.687h4.824l-0.167 7.093zM30.090 18.030c0.884 0.454 1.433 1.481 1.433 2.651 0 1.218-1.266 2.484-2.484 2.484-1.743 0-3.009-1.218-3.009-2.89 0-0.549 0.239-0.979 0.931-1.672 1.027-1.051 1.91-1.194 3.128-0.573z"></path>
<path d="M7.164 13.755c-0.525 0.525-0.573 0.836-0.597 2.484 0 1.528 0.096 2.006 0.502 2.555 0.669 0.884 1.982 1.051 2.698 0.334 0.454-0.454 0.502-0.788 0.502-3.009s-0.048-2.507-0.454-2.746c-0.86-0.454-2.054-0.287-2.651 0.382z"></path>
</symbol>
<symbol id="icon-education" viewBox="0 0 62 32">
<path fill="#3f51b5" style="fill: var(--color1, #3f51b5)" d="M27.446 0.602c-2.554 0.569-4.275 0.949-11.904 2.627-1.933 0.429-4.993 1.099-6.795 1.499-1.802 0.395-4.467 0.983-5.928 1.301-1.455 0.318-2.684 0.593-2.723 0.607-0.043 0.014 0.024 0.058 0.169 0.111 8.231 2.916 10.892 3.86 10.906 3.875 0.010 0.010-0.019 0.135-0.067 0.28-0.106 0.347-0.14 1.639-0.077 3.388 0.024 0.742 0.034 1.431 0.024 1.528-0.019 0.14-0.067 0.212-0.231 0.337-0.593 0.453-0.771 1.166-0.458 1.802 0.082 0.174 0.231 0.376 0.342 0.467l0.193 0.169 0.212 1.267c0.12 0.699 0.217 1.277 0.217 1.287s0.024 0 0.053-0.019c0.043-0.024 0.048 0.275 0.029 1.19-0.034 1.504-0.101 2.241-0.492 5.537-0.111 0.949-0.178 1.716-0.241 2.699-0.029 0.453-0.029 0.463 0.125 0.689 0.178 0.27 0.434 0.458 0.839 0.612 0.414 0.164 1.282 0.169 1.822 0.010 0.771-0.222 1.417-0.66 1.711-1.166 0.12-0.198 0.13-0.26 0.125-0.699-0.014-0.901-0.318-2.294-1.32-6.024-0.684-2.54-0.814-3.051-0.79-3.142 0.010-0.048-0.072-0.631-0.183-1.292l-0.207-1.205 0.154-0.26c0.275-0.463 0.299-0.935 0.067-1.393-0.12-0.236-0.453-0.569-0.694-0.689-0.159-0.087-0.183-0.116-0.159-0.217 0.019-0.067-0.005-0.954-0.048-1.971-0.063-1.427-0.067-1.952-0.024-2.294 0.029-0.246 0.067-0.463 0.092-0.487s1.017 0.304 2.231 0.733c1.205 0.429 2.41 0.858 2.684 0.954 0.424 0.149 0.492 0.188 0.492 0.28 0 0.063-0.063 1.354-0.145 2.872-0.222 4.284-0.217 4.149-0.125 4.631 0.299 1.571 1.335 3.060 2.564 3.687 0.448 0.231 3.031 0.94 4.549 1.258 5.137 1.065 9.952 1.026 15.157-0.12 2.506-0.549 4.376-1.267 5.504-2.111 0.887-0.665 1.075-1.012 1.243-2.304 0.043-0.313 0.077-0.708 0.077-0.872s-0.183-1.913-0.414-3.889c-0.227-1.976-0.414-3.653-0.424-3.73-0.010-0.135 0.005-0.14 0.713-0.414 0.4-0.149 3.957-1.513 7.904-3.027 3.952-1.513 7.248-2.776 7.325-2.81 0.082-0.029 0.125-0.063 0.096-0.072-0.024-0.010-3.865-0.757-8.53-1.658-4.665-0.906-11.725-2.27-15.687-3.041-3.961-0.766-7.224-1.393-7.253-1.388-0.024 0.005-1.239 0.27-2.699 0.598z"></path>
</symbol>
</defs>
</svg>
